<svg viewBox="0 0 204 28" xmlns="http://www.w3.org/2000/svg" data-logo="logo">
        <g transform="translate(0, 14) rotate(0)" id="logogram" style="opacity: 1;"></g>
        <g transform="translate(0, 1)" id="logotype" style="opacity: 1;"><path d="M8.19 26.42L8.19 26.42Q5.92 26.42 4.32 25.23Q2.73 24.04 1.89 21.22Q1.05 18.41 1.05 13.57L1.05 13.57Q1.05 8.67 1.89 5.87Q2.73 3.07 4.32 1.90Q5.92 0.73 8.19 0.73L8.19 0.73Q10.47 0.73 12.06 1.90Q13.65 3.07 14.49 5.87Q15.33 8.67 15.33 13.57L15.33 13.57Q15.33 18.41 14.49 21.22Q13.65 24.04 12.06 25.23Q10.47 26.42 8.19 26.42ZM8.19 23.16L8.19 23.16Q9.17 23.16 9.84 22.45Q10.50 21.73 10.87 19.95Q11.24 18.16 11.24 15.01L11.24 15.01L11.24 12.10Q11.24 8.95 10.87 7.19Q10.50 5.42 9.84 4.70Q9.17 3.98 8.19 3.98L8.19 3.98Q7.21 3.98 6.53 4.70Q5.85 5.42 5.50 7.19Q5.15 8.95 5.15 12.10L5.15 12.10L5.15 15.01Q5.15 18.16 5.50 19.93Q5.85 21.70 6.53 22.43Q7.21 23.16 8.19 23.16ZM23.56 26.42L23.56 26.42Q21.74 26.42 20.34 25.51Q18.94 24.60 18.13 22.55Q17.33 20.50 17.33 17.11L17.33 17.11Q17.33 13.68 18.13 11.63Q18.94 9.58 20.34 8.67Q21.74 7.76 23.56 7.76L23.56 7.76Q25.13 7.76 26.37 8.43Q27.62 9.09 28.39 10.69Q29.16 12.28 29.23 15.04L29.23 15.04L25.80 15.25Q25.66 12.84 25.20 11.82Q24.75 10.81 23.63 10.81L23.63 10.81Q22.47 10.81 21.89 11.81Q21.32 12.80 21.32 15.29L21.32 15.29L21.32 18.89Q21.32 21.34 21.89 22.34Q22.47 23.34 23.63 23.34L23.63 23.34Q24.78 23.34 25.22 22.32Q25.66 21.31 25.80 18.89L25.80 18.89L29.26 19.11Q29.19 21.87 28.42 23.46Q27.65 25.05 26.39 25.74Q25.13 26.42 23.56 26.42ZM35.14 26.28L35.14 26.28Q33.11 26.28 31.97 25.00Q30.84 23.73 30.84 21.41L30.84 21.41Q30.84 19.11 32.04 17.81Q33.25 16.52 35.42 15.74L35.42 15.74L38.64 14.55L38.64 13.12Q38.64 11.79 38.13 11.30Q37.63 10.81 36.79 10.81L36.79 10.81Q35.88 10.81 35.33 11.44Q34.79 12.07 34.62 13.75L34.62 13.75L31.01 13.29Q31.29 10.60 32.78 9.18Q34.27 7.76 36.96 7.76L36.96 7.76Q42.56 7.76 42.56 13.57L42.56 13.57L42.56 21.45Q42.56 22.32 42.58 23.23Q42.60 24.14 42.70 26L42.70 26L39.06 26L38.85 24.07Q38.29 25.20 37.33 25.74Q36.37 26.28 35.14 26.28ZM34.69 21.10L34.69 21.10Q34.69 22.43 35.16 22.95Q35.63 23.48 36.51 23.48L36.51 23.48Q37.49 23.48 38.06 22.83Q38.64 22.18 38.64 21.17L38.64 21.17L38.64 17.21L36.89 17.95Q35.88 18.41 35.28 19.07Q34.69 19.73 34.69 21.10ZM49.28 26L45.36 26L45.36 1.15L49.28 1.15L49.28 15.46L53.45 8.18L57.23 8.18L53.31 14.94L57.37 26L53.38 26L50.58 18.13L49.28 20.40L49.28 26ZM63.98 26.42L63.98 26.42Q61.92 26.42 60.81 25.32Q59.71 24.21 59.71 22.01L59.71 22.01L59.71 11.16L57.82 11.16L57.82 8.18L59.85 8.18L60.31 3.60L63.63 3.60L63.63 8.18L66.71 8.18L66.71 11.16L63.63 11.16L63.63 21.24Q63.63 22.32 64.12 22.75Q64.61 23.16 65.38 23.16L65.38 23.16Q65.73 23.16 66.10 23.13Q66.47 23.09 66.96 22.95L66.96 22.95L66.96 25.89Q65.49 26.42 63.98 26.42ZM72.49 26.28L72.49 26.28Q70.46 26.28 69.32 25.00Q68.18 23.73 68.18 21.41L68.18 21.41Q68.18 19.11 69.39 17.81Q70.60 16.52 72.77 15.74L72.77 15.74L75.99 14.55L75.99 13.12Q75.99 11.79 75.48 11.30Q74.97 10.81 74.13 10.81L74.13 10.81Q73.22 10.81 72.68 11.44Q72.14 12.07 71.96 13.75L71.96 13.75L68.36 13.29Q68.64 10.60 70.12 9.18Q71.61 7.76 74.31 7.76L74.31 7.76Q79.91 7.76 79.91 13.57L79.91 13.57L79.91 21.45Q79.91 22.32 79.92 23.23Q79.94 24.14 80.05 26L80.05 26L76.41 26L76.20 24.07Q75.64 25.20 74.67 25.74Q73.71 26.28 72.49 26.28ZM72.03 21.10L72.03 21.10Q72.03 22.43 72.50 22.95Q72.98 23.48 73.85 23.48L73.85 23.48Q74.83 23.48 75.41 22.83Q75.99 22.18 75.99 21.17L75.99 21.17L75.99 17.21L74.24 17.95Q73.22 18.41 72.63 19.07Q72.03 19.73 72.03 21.10ZM91.63 26L87.71 26L87.71 8.18L91.59 8.18L91.59 10.14Q92.79 7.76 95.27 7.76L95.27 7.76Q96.39 7.76 97.28 8.38Q98.18 8.99 98.56 10.32L98.56 10.32Q99.23 8.99 100.22 8.38Q101.22 7.76 102.45 7.76L102.45 7.76Q103.39 7.76 104.27 8.18Q105.14 8.60 105.72 9.69Q106.30 10.77 106.30 12.77L106.30 12.77L106.30 26L102.38 26L102.38 13.36Q102.38 12.03 101.96 11.49Q101.54 10.95 100.73 10.95L100.73 10.95Q99.96 10.95 99.45 11.47Q98.95 12.00 98.95 13.50L98.95 13.50L98.95 26L95.03 26L95.03 13.36Q95.03 12.00 94.57 11.47Q94.12 10.95 93.42 10.95L93.42 10.95Q92.72 10.95 92.17 11.44Q91.63 11.93 91.63 13.47L91.63 13.47L91.63 26ZM112.98 26.42L112.98 26.42Q111.27 26.42 110.13 25.23Q108.99 24.04 108.99 21.38L108.99 21.38L108.99 8.18L112.91 8.18L112.91 20.68Q112.91 22.22 113.40 22.76Q113.89 23.30 114.69 23.30L114.69 23.30Q115.47 23.30 116.09 22.75Q116.72 22.18 116.72 20.68L116.72 20.68L116.72 8.18L120.64 8.18L120.64 26L116.76 26L116.76 23.93Q116.13 25.23 115.15 25.82Q114.17 26.42 112.98 26.42ZM127.40 26L123.48 26L123.48 1.15L127.40 1.15L127.40 10.25Q128.06 8.95 129.08 8.36Q130.09 7.76 131.22 7.76L131.22 7.76Q133.07 7.76 134.17 9.02Q135.28 10.28 135.28 12.84L135.28 12.84L135.28 26L131.32 26L131.32 13.50Q131.32 12.07 130.85 11.47Q130.38 10.88 129.50 10.88L129.50 10.88Q128.66 10.88 128.03 11.46Q127.40 12.03 127.40 13.57L127.40 13.57L127.40 26ZM141.68 26.28L141.68 26.28Q139.65 26.28 138.51 25.00Q137.38 23.73 137.38 21.41L137.38 21.41Q137.38 19.11 138.58 17.81Q139.79 16.52 141.96 15.74L141.96 15.74L145.18 14.55L145.18 13.12Q145.18 11.79 144.67 11.30Q144.17 10.81 143.33 10.81L143.33 10.81Q142.42 10.81 141.87 11.44Q141.33 12.07 141.16 13.75L141.16 13.75L137.55 13.29Q137.83 10.60 139.32 9.18Q140.81 7.76 143.50 7.76L143.50 7.76Q149.10 7.76 149.10 13.57L149.10 13.57L149.10 21.45Q149.10 22.32 149.12 23.23Q149.14 24.14 149.24 26L149.24 26L145.60 26L145.39 24.07Q144.83 25.20 143.87 25.74Q142.91 26.28 141.68 26.28ZM141.23 21.10L141.23 21.10Q141.23 22.43 141.70 22.95Q142.17 23.48 143.05 23.48L143.05 23.48Q144.03 23.48 144.60 22.83Q145.18 22.18 145.18 21.17L145.18 21.17L145.18 17.21L143.43 17.95Q142.42 18.41 141.82 19.07Q141.23 19.73 141.23 21.10ZM155.30 26L151.90 26L151.90 1.15L155.82 1.15L155.82 9.83Q156.42 8.74 157.27 8.25Q158.13 7.76 159.18 7.76L159.18 7.76Q160.65 7.76 161.82 8.66Q163.00 9.55 163.70 11.58Q164.40 13.61 164.40 17.11L164.40 17.11Q164.40 20.54 163.70 22.59Q163.00 24.63 161.82 25.53Q160.65 26.42 159.25 26.42L159.25 26.42Q158.06 26.42 157.10 25.88Q156.14 25.34 155.54 24.21L155.54 24.21L155.30 26ZM155.82 14.62L155.82 19.77Q155.82 21.91 156.50 22.64Q157.19 23.38 158.13 23.38L158.13 23.38Q159.25 23.38 159.83 22.36Q160.41 21.34 160.41 19.17L160.41 19.17L160.41 15.01Q160.41 12.80 159.83 11.79Q159.25 10.77 158.13 10.77L158.13 10.77Q157.19 10.77 156.50 11.54Q155.82 12.31 155.82 14.62L155.82 14.62ZM170.17 26L166.78 26L166.78 1.15L170.70 1.15L170.70 9.83Q171.29 8.74 172.15 8.25Q173.01 7.76 174.06 7.76L174.06 7.76Q175.53 7.76 176.70 8.66Q177.87 9.55 178.57 11.58Q179.27 13.61 179.27 17.11L179.27 17.11Q179.27 20.54 178.57 22.59Q177.87 24.63 176.70 25.53Q175.53 26.42 174.13 26.42L174.13 26.42Q172.94 26.42 171.97 25.88Q171.01 25.34 170.42 24.21L170.42 24.21L170.17 26ZM170.70 14.62L170.70 19.77Q170.70 21.91 171.38 22.64Q172.06 23.38 173.01 23.38L173.01 23.38Q174.13 23.38 174.70 22.36Q175.28 21.34 175.28 19.17L175.28 19.17L175.28 15.01Q175.28 12.80 174.70 11.79Q174.13 10.77 173.01 10.77L173.01 10.77Q172.06 10.77 171.38 11.54Q170.70 12.31 170.70 14.62L170.70 14.62ZM187.39 26.42L187.39 26.42Q185.57 26.42 184.15 25.53Q182.74 24.63 181.95 22.59Q181.16 20.54 181.16 17.11L181.16 17.11Q181.16 13.68 181.97 11.63Q182.77 9.58 184.17 8.67Q185.57 7.76 187.39 7.76L187.39 7.76Q189.39 7.76 190.58 8.67Q191.77 9.58 192.34 11.07Q192.92 12.56 193.03 14.29Q193.13 16.02 192.99 17.67L192.99 17.67L185.08 17.67L185.08 18.93Q185.08 21.48 185.69 22.46Q186.31 23.45 187.46 23.45L187.46 23.45Q188.55 23.45 188.98 22.57Q189.42 21.70 189.63 19.63L189.63 19.63L193.10 19.91Q192.89 23.41 191.31 24.91Q189.74 26.42 187.39 26.42ZM185.08 15.08L185.08 15.08L185.08 15.18L189.60 15.18L189.60 14.97Q189.60 12.49 189.07 11.58Q188.55 10.67 187.46 10.67L187.46 10.67Q186.34 10.67 185.71 11.63Q185.08 12.59 185.08 15.08ZM200.45 26.42L200.45 26.42Q198.38 26.42 197.28 25.32Q196.18 24.21 196.18 22.01L196.18 22.01L196.18 11.16L194.28 11.16L194.28 8.18L196.31 8.18L196.77 3.60L200.09 3.60L200.09 8.18L203.18 8.18L203.18 11.16L200.09 11.16L200.09 21.24Q200.09 22.32 200.59 22.75Q201.08 23.16 201.84 23.16L201.84 23.16Q202.20 23.16 202.56 23.13Q202.93 23.09 203.42 22.95L203.42 22.95L203.42 25.89Q201.95 26.42 200.45 26.42Z" fill="#ffffff"></path></g>
        
      </svg>